<svg width="680" height="600" viewBox="0 0 680 600" xmlns="http://www.w3.org/2000/svg">
  <title>Toofan logo</title>
  
        
  <path d="M104,88 C94,103 588,117 578,102 C586,88 90,104 98,118 C88,134 594,147 584,131 C596,117 94,133 106,147 C97,162 583,176 574,161 C584,148 102,164 112,177 C104,191 574,204 566,190 C577,177 113,193 124,206 C114,220 566,233 556,219 C566,206 180,223 190,236 C182,248 456,264 448,252 C455,241 249,256 256,267 C250,277 430,292 424,282 C429,272 257,287 262,297 C257,307 423,321 418,311 C423,302 263,317 268,326 C264,335 416,349 412,340 C416,332 270,347 274,355 C270,363 410,377 406,369 C409,362 277,377 280,384 C277,391 403,405 400,398 C403,392 285,406 288,412 C285,418 395,432 392,426 C394,421 294,435 296,440 C294,445 386,458 384,453 C386,449 302,463 304,467 C302,471 378,484 376,480 C378,476 312,490 314,494 C312,497 368,510 366,507 C366,520 348,534 340,548" fill="none" stroke="#111111"
        stroke-width="6" stroke-linecap="round" stroke-linejoin="round"/>
  <g fill="#111111">
    <path d="M210,556 Q340,546 470,556 Q340,564 210,556 Z"/>
    <path d="M260,570 Q340,565 420,570 Q340,575 260,570 Z"/>
  </g>
    
</svg>
